<svg xmlns="http://www.w3.org/2000/svg" xmlns:xlink="http://www.w3.org/1999/xlink" width="30" height="30" viewBox="0 0 30 30">
  <defs>
    <clipPath id="clip-hide-eye-icon">
      <rect width="30" height="30"/>
    </clipPath>
  </defs>
  <g id="hide-eye-icon" clip-path="url(#clip-hide-eye-icon)">
    <g id="Group_334" data-name="Group 334" transform="translate(-395.756 -3336.5)">
      <g id="view-off">
        <path id="Shape_1538" data-name="Shape 1538" d="M401.788,3360l18.75-18" transform="translate(0 -0.5)" fill="none" stroke="#137e84" stroke-linecap="round" stroke-linejoin="round" stroke-width="1.5"/>
        <path id="Shape_1539" data-name="Shape 1539" d="M407.969,3358.051a9.984,9.984,0,0,0,3.036.449c4.1.069,8.258-2.813,10.824-5.637a1.663,1.663,0,0,0,0-2.226,20.588,20.588,0,0,0-3.074-2.757" transform="translate(0 -0.5)" fill="none" stroke="#137e84" stroke-linecap="round" stroke-linejoin="round" stroke-width="1.5"/>
        <path id="Shape_1540" data-name="Shape 1540" d="M413.418,3345.283a9.567,9.567,0,0,0-2.413-.282c-4.031-.067-8.2,2.752-10.821,5.635a1.663,1.663,0,0,0,0,2.226,20.786,20.786,0,0,0,2.6,2.4" transform="translate(0 -0.5)" fill="none" stroke="#137e84" stroke-linecap="round" stroke-linejoin="round" stroke-width="1.5"/>
        <path id="Shape_1541" data-name="Shape 1541" d="M407.255,3351.75a3.749,3.749,0,0,1,3.75-3.75" transform="translate(0 -0.5)" fill="none" stroke="#137e84" stroke-linecap="round" stroke-linejoin="round" stroke-width="1.5"/>
        <path id="Shape_1542" data-name="Shape 1542" d="M414.755,3351.75h0a3.75,3.75,0,0,1-3.75,3.751" transform="translate(0 -0.5)" fill="none" stroke="#137e84" stroke-linecap="round" stroke-linejoin="round" stroke-width="1.5"/>
      </g>
    </g>
  </g>
</svg>
