<svg xmlns="http://www.w3.org/2000/svg" xmlns:xlink="http://www.w3.org/1999/xlink" width="30" height="30" viewBox="0 0 30 30">
  <defs>
    <clipPath id="clip-show-eye-icon">
      <rect width="30" height="30"/>
    </clipPath>
  </defs>
  <g id="show-eye-icon" clip-path="url(#clip-show-eye-icon)">
    <g id="Interface-Essential_View_view-1" data-name="Interface-Essential / View / view-1" transform="translate(-251.756 -3336.25)">
      <g id="Group_331" data-name="Group 331">
        <g id="view-1">
          <path id="Shape_1534" data-name="Shape 1534" d="M267.005,3344.251c-4.031-.068-8.2,2.749-10.821,5.634a1.663,1.663,0,0,0,0,2.226c2.564,2.824,6.721,5.706,10.821,5.637,4.1.069,8.258-2.813,10.824-5.637a1.663,1.663,0,0,0,0-2.226C275.2,3347,271.036,3344.183,267.005,3344.251Z" fill="none" stroke="#137e84" stroke-linecap="round" stroke-linejoin="round" stroke-width="1.5"/>
          <path id="Shape_1535" data-name="Shape 1535" d="M270.755,3351a3.749,3.749,0,1,1-1.1-2.653,3.751,3.751,0,0,1,1.1,2.653Z" fill="none" stroke="#137e84" stroke-linecap="round" stroke-linejoin="round" stroke-width="1.5"/>
        </g>
      </g>
    </g>
  </g>
</svg>
