<svg xmlns="http://www.w3.org/2000/svg" xmlns:xlink="http://www.w3.org/1999/xlink" width="400" height="400" viewBox="0 0 400 400">
  <defs>
    <clipPath id="clip-path">
      <path id="Path_12066" data-name="Path 12066" d="M252.7-317.515H171.792l4.268-12.564h72.37Z" transform="translate(-171.792 330.079)" fill="#d99b52" clip-rule="evenodd"/>
    </clipPath>
    <clipPath id="clip-path-2">
      <path id="Path_12065" data-name="Path 12065" d="M182.353-619.2H0V-801H182.353Z" transform="translate(0 801)" fill="#d99b52"/>
    </clipPath>
    <clipPath id="clip-path-3">
      <path id="Path_12069" data-name="Path 12069" d="M495.027-232.922H491.2L515.2-299.975h6.156Z" transform="translate(-491.195 299.975)" fill="#d99b52" clip-rule="evenodd"/>
    </clipPath>
    <clipPath id="clip-path-5">
      <path id="Path_12072" data-name="Path 12072" d="M101.331-232.922h3.832L81.155-299.975H75Z" transform="translate(-75 299.975)" fill="#d99b52" clip-rule="evenodd"/>
    </clipPath>
    <clipPath id="clip-path-7">
      <path id="Path_12075" data-name="Path 12075" d="M209.753-743.986l20.736,35.8a39.042,39.042,0,0,0,33.795,19.451h59.339l-52.468-90.6A35.471,35.471,0,0,0,240.454-797c-27.289,0-44.346,29.452-30.7,53.014" transform="translate(-204.951 797)" fill="none" clip-rule="evenodd"/>
    </clipPath>
    <clipPath id="clip-path-8">
      <path id="Path_12074" data-name="Path 12074" d="M182.353-619.2H0V-801H182.353Z" transform="translate(0 801)" fill="none"/>
    </clipPath>
    <clipPath id="clip-path-9">
      <path id="Path_12078" data-name="Path 12078" d="M203.9-479.89h-36.8l-27.137-46.853h45.485a20.031,20.031,0,0,1,17.337,9.979l11.232,19.4A11.653,11.653,0,0,1,203.9-479.89" transform="translate(-139.973 526.743)" fill="none" clip-rule="evenodd"/>
    </clipPath>
    <clipPath id="clip-path-11">
      <path id="Path_12080" data-name="Path 12080" d="M398.191-479.89H363.681a39.048,39.048,0,0,1-33.795-19.45l-15.871-27.4H359.5a20.028,20.028,0,0,1,17.336,9.979Z" transform="translate(-314.016 526.743)" fill="none" clip-rule="evenodd"/>
    </clipPath>
    <clipPath id="clip-_02">
      <rect width="400" height="400"/>
    </clipPath>
  </defs>
  <g id="_02" data-name="02" clip-path="url(#clip-_02)">
    <rect width="400" height="400" fill="transparent"/>
    <g id="Ilustracao" transform="translate(-2059 3172)">
      <g id="Fundo" transform="translate(2059 -3140)">
        <g id="Fundo-2" transform="translate(0 35.006)">
          <path id="Path_6771" data-name="Path 6771" d="M307.919,119.738s101.617-6.35,118.588,35.978-31.73,86.92-50.7,133.334,24.44,89.659-7.35,107.034-56.494-4.076-87.042-22.038-143.57,54.227-186.639,37.927-87.484-69.65-51.58-115.261S63.626,272.82,119.476,189.56,307.919,119.738,307.919,119.738Z" transform="translate(-30.038 -118.938)" fill="#c4e8f5"/>
        </g>
        <path id="Path_6771-2" data-name="Path 6771-2" d="M237.336,341.556S87.961,378.008,66.907,356.443c-33.073-33.887,33.918-59.286,28.3-112.857s-72.117-69.037-50.77-101.428,38.009-43.113,76.176-41.316,37.873,19.949,87.086,13.9S271.591,73.5,317.468,76.675s25.841,21.471,42.174,52.523,22.98,51.238,23.155,71.685c.311,36.283-42.309,59.074-42.309,59.074Z" transform="translate(-31.749 -76.473)" fill="#e8f4f7"/>
        <path id="Path_12064" data-name="Path 12064" d="M346.681,183.444l-4.029-6.155,6.214-3.991,4.029,6.155Z" transform="translate(-82.504 -93.482)" fill="#00d1d1"/>
        <path id="Path_12065-2" data-name="Path 12065" d="M359.416,146.251a8.527,8.527,0,0,0,4.4,11.292,8.672,8.672,0,0,0,11.4-4.357,8.526,8.526,0,0,0-4.385-11.286,8.672,8.672,0,0,0-11.407,4.338l-.006.013" transform="translate(-85.193 -87.836)" fill="#ffd871"/>
      </g>
      <g id="Humano" transform="translate(2172.55 -3078.548)">
        <path id="Path_6886" data-name="Path 6886" d="M5474.534-3138.97a79.952,79.952,0,0,1-7.564,16.35,80.73,80.73,0,0,0,16.235-28.108,54.508,54.508,0,0,1,3.713-8.642,52.181,52.181,0,0,0-12.384,20.4" transform="translate(-5406.25 3167.213)" fill="#88c4d4"/>
        <path id="Path_6972" data-name="Path 6972" d="M5518.1-3075.38s-9.473,1.112-13.713,3.637l11.923,5.239Z" transform="translate(-5456.573 3126.067)" fill="#900"/>
        <path id="Path_6973" data-name="Path 6973" d="M5373.769-3045.949l17.938,3.474a17.937,17.937,0,0,1,12.393,9.111l29.636,55.059-16.467,13.219-23.178-42.221Z" transform="translate(-5305.396 3111.65)" fill="#c00"/>
        <path id="Path_6974" data-name="Path 6974" d="M5463.759-3062.09l3.1,4.923L5462-3043.541l-10.025-10.728,7.923-7.789Z" transform="translate(-5378.517 3119.557)" fill="#900"/>
        <path id="Path_6975" data-name="Path 6975" d="M5447.616-3024.624l-45.717-.567,13.3,60.911,24.442,13.524,29.735-11.774-14.589-54.717Z" transform="translate(-5355.423 3101.481)" fill="#c00"/>
        <path id="Path_6976" data-name="Path 6976" d="M5428.3-3144.9a22.9,22.9,0,0,0,28.008,16.2,22.827,22.827,0,0,0,16.241-27.93,22.894,22.894,0,0,0-28-16.2,22.825,22.825,0,0,0-16.245,27.93" transform="translate(-5372.48 3174.186)" fill="#774949"/>
        <path id="Path_6977" data-name="Path 6977" d="M5456.979-3086.727s15.713,20.333,31.011,27.71l1.91-12.177a14.377,14.377,0,0,1-2.968-4.081,11.459,11.459,0,0,1-.5-1.153,13.969,13.969,0,0,1-.46-1.418,14.333,14.333,0,0,1-.189-6.575l1.57-7.7.122-.6-1.426-1.347-19.739-18.707s1.406,18.059-9.329,26.043" transform="translate(-5404.12 3144.384)" fill="#ffc5b8"/>
        <path id="Path_6978" data-name="Path 6978" d="M5467.384-3046.83s-4.434,11.222-19.585,1.423c0,0,2.271,29.236,2.947,29.374s20.638-.276,20.638-.276l2.291-14.667Z" transform="translate(-5383.199 3112.081)" fill="#fff"/>
        <path id="Path_6979" data-name="Path 6979" d="M74.372,0A34.319,34.319,0,0,0,64.158,2.132L46.743,8.67A155.208,155.208,0,0,0,3.936,33.077L0,36.24,19.36,71.772,115.126,49.9S115.172-.038,74.372,0" transform="translate(146.14 223.279) rotate(-158)" fill="#1d4571"/>
        <path id="Path_6985" data-name="Path 6985" d="M5429.6-3120.518l13.288,16.432a8.663,8.663,0,0,0,13.224.821,54.394,54.394,0,0,0,4.081-4.846l2.9-3.888c.194-.26.379-.525.557-.791a15.964,15.964,0,0,0,1.581-3.086,16.2,16.2,0,0,0,1.068-6.862l-.8-13.181a7.387,7.387,0,0,0-3.994-6.117,22.5,22.5,0,0,0-16.082-1.74c-.414.107-.828.229-1.239.362l-3.031.8a13.965,13.965,0,0,0-5.913,3.213,14.012,14.012,0,0,0-3.237,4.372,14,14,0,0,0-1.167,3.755,14,14,0,0,0,.138,5.208l-.936-1.163c-.6.163-.434,6.708-.434,6.708" transform="translate(-5366.54 3159.941)" fill="#ffc5b8"/>
        <path id="Path_6986" data-name="Path 6986" d="M5436.236-3123.719l-4.015.546-4.5,20.283,10.167-1.265Z" transform="translate(-5337.143 3149.747)" fill="#ffc5b8"/>
        <rect id="Rectangle_2503" data-name="Rectangle 2503" width="3.876" height="12.729" transform="translate(94.793 33.205)" fill="none"/>
        <path id="Path_6987" data-name="Path 6987" d="M5437.34-3057.56s2.451,1.276-2.056,8.071-4.864,18.615-4.864,18.615l7.693,13.36,11.948-15.589-6.132-16.273a16.886,16.886,0,0,0-6.589-8.183" transform="translate(-5350.697 3117.339)" fill="#c00"/>
        <path id="Path_6989" data-name="Path 6989" d="M5508.844-3068.249l-3.208,8.376,8.291,7.075a12.826,12.826,0,0,1,6.859-7.545,1.784,1.784,0,0,0-.01-3.326Z" transform="translate(-5461.026 3122.574)" fill="#c00"/>
        <path id="Path_6990" data-name="Path 6990" d="M5494.313-3120.309c-.839-3.137-.052-6.065,1.754-6.545s3.949,1.674,4.782,4.811.051,6.066-1.753,6.545-3.95-1.673-4.783-4.811" transform="translate(-5434.328 3151.316)" fill="#ffc5b8"/>
        <path id="Path_6991" data-name="Path 6991" d="M22.817,0,68.649,78.864l38.263,8.257L77.435,103.694a24.941,24.941,0,0,1-33.784-9.145L0,19.6Z" transform="translate(178.869 269.213) rotate(-158)" fill="#1d4571"/>
        <path id="Path_6992" data-name="Path 6992" d="M22.82,0,68.652,78.859l38.263,8.258L77.44,103.693a24.946,24.946,0,0,1-33.784-9.145L0,19.6Z" transform="translate(199.855 273.312) rotate(-158)" fill="#1e436c"/>
        <path id="Path_6993" data-name="Path 6993" d="M5449.338-3154.188c3.577-.5,7.406-1.326,9.8-4.019s2.189-7.82-1.177-9.131c-1.048-.409-2.311-.439-3.083-1.255-.911-.959-.68-2.5-1.183-3.724-1.192-2.9-5.316-2.535-8.445-2.2-3.339.352-6.72.072-10.062.444s-6.791,1.525-8.908,4.127c-3.5,4.305-1.325,11.835,3.933,13.625,0,0,12.6,3.056,19.12,2.137" transform="translate(-5358.399 3174.741)" fill="#774949"/>
        <path id="Path_6994" data-name="Path 6994" d="M5434.889-3124.3a12.433,12.433,0,0,0,2.736,9.116l10.44,12.906a8.66,8.66,0,0,0,13.221.822c.833-.868,1.622-1.771,2.354-2.653.623-.749,1.2-1.489,1.729-2.194l.858-1.157.057-.076,1.1-1.479.879-1.174c.2-.26.381-.525.559-.79a9.549,9.549,0,0,0-8.965.367l-14.307-7.682-6.009-22.543-2.824,6.3s-1.769,5.928-.574,10.284l-.935-1.163c-.153.041-.256.479-.322,1.117" transform="translate(-5371.712 3158.135)" fill="#774949"/>
        <path id="Path_6995" data-name="Path 6995" d="M5442.5-3073.239c.624-.75,1.2-1.49,1.729-2.193l.859-1.158-5.191-1.229s.8,3.158,2.6,4.581" transform="translate(-5350.576 3127.263)" fill="#ffc5b8"/>
        <path id="Path_6998" data-name="Path 6998" d="M5139.409-2767.719c.8,4.861,9.837,15.758,9.837,15.758h47.675s-34.418-22.926-41.937-23.339Z" transform="translate(-4967.568 3022.652)" fill="#1e436c"/>
        <path id="Path_6982" data-name="Path 6982" d="M0,7.7,23.556,0" transform="translate(120.102 151.284) rotate(-160)" fill="none" stroke="#ec0000" stroke-miterlimit="10" stroke-width="8.62"/>
        <path id="Path_6981" data-name="Path 6981" d="M5377.784-2923.7l9.6-.445,9.835-8.365a5.853,5.853,0,0,1,3.04-1.352l9.282-1.245a3.785,3.785,0,0,1,3.636,1.628l2.476,3.667a.518.518,0,0,1,.05.5l-.249.623a.547.547,0,0,1-.838.224l-.318-.255.384.76a1.1,1.1,0,0,1-.169,1.245l-.9.985a1.11,1.11,0,0,1-1.516.1l-4.137-3.407a.312.312,0,0,0-.267-.066l-2.132.444a.313.313,0,0,0-.087.581l2.776,1.556a.744.744,0,0,1-.132,1.357l-2.088.7a.857.857,0,0,1-.409.021l-1.463-.337a1.807,1.807,0,0,0-1.212.148l-2.051,1.04a2.541,2.541,0,0,0-.993.893l-1.268,1.939a5.3,5.3,0,0,1-2.456,2.024l-19.984,8.127Z" transform="translate(-5288.638 3057.371)" fill="#ffc5b8"/>
        <path id="Path_6983" data-name="Path 6983" d="M57.181.077,1.719,14.808A2.312,2.312,0,0,0,0,17.155L2.1,57.984A2.3,2.3,0,0,0,5,60.1l55.458-14.73a2.3,2.3,0,0,0,1.715-2.347L60.08,2.194a2.315,2.315,0,0,0-2.9-2.117" transform="translate(178.309 157.026) rotate(-171)" fill="#fff"/>
        <path id="Path_6984" data-name="Path 6984" d="M62.165,43.021,60.074,2.194a2.314,2.314,0,0,0-2.9-2.117L33.953,6.25,4.5,14.067l-2.787.741A2.3,2.3,0,0,0,0,17.161L2.094,57.984a2.31,2.31,0,0,0,2.9,2.116l22.66-6.014,32.8-8.712a2.314,2.314,0,0,0,1.714-2.352" transform="translate(180.168 156.834) rotate(-171)" fill="#ec0000"/>
        <path id="Path_6999" data-name="Path 6999" d="M27.657,40.018,4.506,0,1.718.741A2.316,2.316,0,0,0,0,3.094L2.1,43.917A2.308,2.308,0,0,0,5,46.032Z" transform="translate(182.373 142.941) rotate(-171)" fill="#c00"/>
        <path id="Path_6997" data-name="Path 6997" d="M5175.949-2742.935c.794,4.867,1.351,11.489,1.351,11.489h47.676s-34.414-22.93-41.938-23.343Z" transform="translate(-5017.189 3006.446)" fill="#1e436c"/>
        <g id="Group_23616" data-name="Group 23616" transform="translate(44.775 201.654)" clip-path="url(#clip-path)">
          <g id="Group_23615" data-name="Group 23615" transform="translate(-62.289 -107.015)" clip-path="url(#clip-path-2)">
            <path id="Path_12064-2" data-name="Path 12064" d="M249.976-335.079H166.792v14.837h83.185Z" transform="translate(-105.642 440.958)" fill="#d99b52"/>
          </g>
        </g>
        <g id="Group_23618" data-name="Group 23618" transform="translate(22.713 208.495)" clip-path="url(#clip-path-3)">
          <g id="Group_23617" data-name="Group 23617" transform="translate(-40.227 -113.856)" clip-path="url(#clip-path-2)">
            <path id="Path_12067" data-name="Path 12067" d="M518.637-304.975H486.2v69.325h32.442Z" transform="translate(-447.108 417.695)" fill="#d99b52"/>
          </g>
        </g>
        <g id="Group_23620" data-name="Group 23620" transform="translate(117.581 208.495)" clip-path="url(#clip-path-5)">
          <g id="Group_23619" data-name="Group 23619" transform="translate(-135.095 -113.856)" clip-path="url(#clip-path-2)">
            <path id="Path_12070" data-name="Path 12070" d="M102.442-304.975H70v69.325h32.442Z" transform="translate(63.955 417.695)" fill="#d99b52"/>
          </g>
        </g>
        <g id="Group_23622" data-name="Group 23622" transform="translate(-0.55 95.548)" clip-path="url(#clip-path-7)">
          <g id="Group_23621" data-name="Group 23621" transform="translate(-16.964 -0.909)" clip-path="url(#clip-path-8)">
            <path id="Path_12073" data-name="Path 12073" d="M320.9-802H199.951v110.542H320.9Z" transform="translate(-184.126 801.773)" fill="#c4e8f5"/>
          </g>
        </g>
        <g id="Group_23624" data-name="Group 23624" transform="translate(57.296 156.963)" clip-path="url(#clip-path-9)">
          <g id="Group_23623" data-name="Group 23623" transform="translate(-74.81 -62.324)" clip-path="url(#clip-path-8)">
            <path id="Path_12076" data-name="Path 12076" d="M212.89-531.743H134.973v49.125H212.89Z" transform="translate(-61.303 592.931)" fill="#ddedf1"/>
          </g>
        </g>
        <g id="Group_23625" data-name="Group 23625" transform="translate(9.087 156.963)" clip-path="url(#clip-path-11)">
          <path id="Path_12079" data-name="Path 12079" d="M395.47-531.743H309.016v49.125H395.47Z" transform="translate(-310.155 530.607)" fill="#c3dde7"/>
        </g>
        <path id="Path_6996" data-name="Path 6996" d="M5468.6-3056.52l-9.386,4.9a29.973,29.973,0,0,0-16.014,28.9l3.657,46.4a17.855,17.855,0,0,0,18.767,16.4l47.481-2.515s-5.769-17.911.01-21.9l-42.023,1-.578-46.923Z" transform="translate(-5420.244 3116.829)" fill="#c00"/>
        <path id="Path_6980" data-name="Path 6980" d="M5461.509-3049l16.357,22.814,2.56,37.194-39.99,19.864-10.5-78.418,18.589-9.6a20.276,20.276,0,0,1,12.981,8.142" transform="translate(-5390.4 3117.133)" fill="#c00"/>
      </g>
    </g>
  </g>
</svg>
