<svg xmlns="http://www.w3.org/2000/svg" viewBox="0 0 384.101 67.299">
  <defs>
    <style>
      .cls-1 {
        fill: #ec0000;
      }
    </style>
  </defs>
  <path id="Path_4719" data-name="Path 4719" class="cls-1" d="M11884.7-6704.64a27.523,27.523,0,0,1-.6,6.25,48.94,48.94,0,0,0-5.6-.27,37.4,37.4,0,0,0-5.3.4v28.44h-7.3v-33.22a43.907,43.907,0,0,1,12.4-1.86,62.332,62.332,0,0,1,6.4.26m-49,14.49h16.5c0-5.45-3-8.64-8-8.64-5.2,0-7.9,2.99-8.5,8.64m23.4,6.11h-23.3c1,5.91,4.4,8.77,10.9,8.77a28.291,28.291,0,0,0,11.7-2.52c-.3,1.92-.6,4.45-1.1,6.64a25.266,25.266,0,0,1-10.8,2.12c-12.2,0-18.1-6.77-18.1-18.13,0-9.9,4.6-17.74,16.2-17.74,10.4,0,14.9,6.84,14.9,15.21a34.635,34.635,0,0,1-.4,5.65m-43.9,6.51v-20.46a30.506,30.506,0,0,0-5.9-.67c-7.2,0-10.7,4.52-10.7,12.1,0,6.77,2.7,11.56,9.3,11.56a11.748,11.748,0,0,0,7.3-2.53m7.2-38.8v46.51h-6.7l-.4-4.25c-1.9,3.12-4.7,5.04-9.5,5.04-8.8,0-14.6-6.37-14.6-17.53,0-11.7,6.2-18.34,18.5-18.34a30.16,30.16,0,0,1,5.5.53v-10.96a21.64,21.64,0,0,1,7.2-1m-37.1,24.18v22.33h-7.3v-21.06c0-5.25-1.7-7.78-9-7.78a36.407,36.407,0,0,0-5.8.54v28.3h-7.3v-33.22a62.067,62.067,0,0,1,13.3-1.86c12.2,0,16.1,4.72,16.1,12.75m-44.7,14.75v-20.86a30.341,30.341,0,0,0-5.2-.4c-7.6,0-11.1,4.65-11.1,12.1,0,6.77,2.7,11.56,9.2,11.56a11.227,11.227,0,0,0,7.1-2.4m7.3-25.64v33.22h-6.7l-.4-3.99c-1.8,2.92-4.7,4.78-9.4,4.78-8.7,0-14.6-6.37-14.6-17.53,0-11.7,6.3-18.34,18.6-18.34a36.593,36.593,0,0,1,12.5,1.86m-39.2,27.77a16.138,16.138,0,0,0,5.7-1,62.027,62.027,0,0,1-.8,6.18,16.526,16.526,0,0,1-6.2,1.06c-7.1,0-11.6-3.25-11.6-11.36v-34.88a24.757,24.757,0,0,1,7.3-1.06v12.56h11.5a56.48,56.48,0,0,1-.6,6.24h-10.9v16.28c0,4.32,2.1,5.98,5.6,5.98m-20.2-16.88v22.33h-7.3v-21.06c0-5.25-1.8-7.78-9.1-7.78a36.417,36.417,0,0,0-5.8.54v28.3h-7.3v-33.22a62.919,62.919,0,0,1,13.3-1.86c12.2,0,16.2,4.72,16.2,12.75m-44.8,14.75v-20.86a29.532,29.532,0,0,0-5.2-.4c-7.6,0-11.1,4.65-11.1,12.1,0,6.77,2.7,11.56,9.2,11.56a11.232,11.232,0,0,0,7.1-2.4m7.4-25.64v33.22h-6.8l-.4-3.99c-1.8,2.92-4.7,4.78-9.3,4.78-8.8,0-14.6-6.37-14.6-17.53,0-11.7,6.2-18.34,18.5-18.34a37.568,37.568,0,0,1,12.6,1.86m-66.4,31.76a22.24,22.24,0,0,1,1.2-6.71,31.486,31.486,0,0,0,12.2,2.59c6.2,0,9.6-2,9.6-5.92,0-3.85-2.5-5.64-8.7-8.37l-3.4-1.46c-6.3-2.72-10.5-6.24-10.5-13.29,0-7.57,5.2-12.42,16-12.42a36.8,36.8,0,0,1,12.2,1.93,24.118,24.118,0,0,1-1.4,6.64,33.567,33.567,0,0,0-10.9-1.93c-5.8,0-8.4,2.26-8.4,5.78,0,3.46,2.6,5.45,7.2,7.45l3.6,1.52c8.5,3.59,12,7.38,12,13.82,0,7.64-5.8,12.89-17.1,12.89-5.4,0-9.9-.8-13.6-2.52m-33.4-32.76a15.888,15.888,0,0,0-2-7l-11.1-19.19a13.584,13.584,0,0,1-1.8-4.63l-.4.8a15.057,15.057,0,0,0,0,15.34l8.8,15.35a15.076,15.076,0,0,1,0,15.35l-.4.8a15.964,15.964,0,0,0-1.8-4.64l-8.1-14.05-5.2-8.97a15.748,15.748,0,0,1-1.7-4.64l-.5.8a15.467,15.467,0,0,0,0,15.3h0l8.9,15.4a15.537,15.537,0,0,1,0,15.34l-.5.8a13.6,13.6,0,0,0-1.8-4.63l-11-19.19a15.48,15.48,0,0,1-2.1-8.34c-11.8,3.1-20,9.68-20,17.29,0,10.6,15.8,19.19,35.4,19.19,19.5,0,35.3-8.59,35.3-19.19,0-7.61-8.2-14.19-20-17.29" transform="translate(-11500.6 6734.859)"/>
</svg>
