<?xml version="1.0" encoding="UTF-8"?>
<svg width="228px" height="198px" viewBox="0 0 228 198" version="1.1" xmlns="http://www.w3.org/2000/svg" xmlns:xlink="http://www.w3.org/1999/xlink">
    <title>3B72EE44-A199-4C2A-92F8-36FF14BB4370</title>
    <g id="----Fluxo-Videochamada----" stroke="none" stroke-width="1" fill="none" fill-rule="evenodd">
        <g id="01_PL_HP" transform="translate(-601.000000, -1051.000000)">
            <rect fill="#FFFFFF" x="0" y="0" width="1440" height="1743"></rect>
            <g id="concepts/Products/Transfers/receive-send-money-abroad" transform="translate(588.000000, 1028.000000)">
                <path d="M144.351689,203.215037 C100.810714,220.198445 57.481221,227.057408 45.4639719,213.806904 C26.5865875,192.985123 65.6227605,176.66194 62.8224287,143.380897 C60.0220969,110.099855 33.4868529,103.411198 34.0236421,82.0793598 C34.5604313,60.7475208 56.655847,53.5659207 78.7578185,54.3856834 C100.859789,55.2054463 100.535174,66.4995601 129.104818,62.3522872 C157.674463,58.2050146 158.15254,37.7089277 184.710638,39.3256854 C211.268737,40.9424432 215.215663,61.8210833 221.871782,80.1180531 C228.5279,98.4150222 229.912008,101.852357 229.83967,114.570459 C229.711574,137.138602 204.820215,151.64908 204.820215,151.64908 C193.535182,174.704112 173.379006,191.892764 144.351689,203.215037 Z" id="Fill-4" fill="#DEEDF2" transform="translate(131.928959, 130.000000) rotate(34.000000) translate(-131.928959, -130.000000) "></path>
                <g id="Group-2" transform="translate(20.627349, 201.947636)" fill="#DEEDF2">
                    <path d="M109.874355,18.9150789 C49.192326,18.9150789 7.04116175e-15,14.6809674 7.04116175e-15,9.45781089 C7.04116175e-15,4.2341115 49.192326,3.08822884e-17 109.874355,3.08822884e-17 C170.556385,3.08822884e-17 219.748711,4.2341115 219.748711,9.45781089 C219.748711,14.6809674 170.556385,18.9150789 109.874355,18.9150789 Z" id="Fill-1"></path>
                </g>
                <g id="Fill-24-+-Fill-27-Mask" transform="translate(104.937278, 100.126682)">
                    <g id="Mask" fill="#34466B">
                        <path d="M114.603125,57.3015625 C114.603125,25.6547541 88.9482191,0 57.3012237,0 C25.6549059,0 0,25.6547541 0,57.3015625 C0,88.948371 25.6549059,114.603125 57.3012237,114.603125 C88.9482191,114.603125 114.603125,88.948371 114.603125,57.3015625" id="Fill-8"></path>
                    </g>
                    <path d="M103.754771,23.0875228 C101.652615,23.9730597 98.7850448,26.1135905 99.0099062,28.7086832 C99.3856036,33.0327584 102.136872,32.1427695 101.636606,34.558974 C101.136339,36.9755833 98.1347378,36.9755833 97.3845362,39.519276 C96.6339375,42.0629687 95.0081692,47.6594973 97.2591716,50.3302735 C99.5101733,53.0014543 102.512172,50.7119286 103.887608,52.7468827 C105.263441,54.7818369 105.763708,57.3255296 108.265042,56.9438745 C109.428749,56.7666051 112.43607,56.4389659 114.881288,55.0762591 C114.007711,43.7488333 109.931494,31.7935488 103.754771,23.0875228 Z M44.9965184,39.8210552 C43.5710105,40.2932971 43.2833087,41.7858815 44.9965184,42.3098074 C46.7097282,42.8333165 48.9501117,42.3098074 48.8184231,41.3928329 C48.6867345,40.4758584 46.1825545,39.4280066 44.9965184,39.8210552 Z M32.135394,37.5009122 C32.0110675,38.8449216 41.5917338,41.935758 41.5917338,40.4574761 C41.5917338,38.9791942 36.1170108,36.6948488 34.9972801,36.5605761 C33.0033041,36.321109 32.2597206,36.1573306 32.135394,37.5009122 Z M63.2652071,14.7628368 C63.5194858,13.9018355 61.6138083,12.9174984 61.1056542,12.6712184 C59.2735518,11.7839837 58.9456979,14.1481156 59.9624095,15.2553969 C60.9787173,16.3626783 63.0113322,15.6246212 63.2652071,14.7628368 Z M73.9714894,72.0044931 C73.9714894,72.0044931 73.29463,58.1774508 68.3719941,57.4198179 C63.4493582,56.6625867 62.0608501,57.9247726 62.0608501,57.9247726 L52.8465723,49.8454951 C52.8465723,49.8454951 38.7100601,53.0013624 36.9427952,52.6225459 C35.1755304,52.244131 30.6316515,51.9914528 30.505533,49.4666785 C30.3790129,46.9419042 32.7776733,44.2909916 29.6219006,42.2707705 C26.4665295,40.2509511 19.5243919,41.7658157 18.6407595,40.5036294 C17.757127,39.2410414 18.0097656,32.8027666 20.9128998,30.5306706 C23.8156323,28.2581729 29.7480191,27.3744015 31.5152839,29.0158061 C33.2821471,30.6568089 31.7675208,34.0653546 33.6609041,34.3176311 C35.5542874,34.5703094 33.7874242,27.6270798 36.0591628,25.9860769 C38.3313031,24.3446724 39.7198109,24.7234889 41.1079172,23.3347627 C42.496425,21.9464381 41.4866742,20.052757 43.6322944,19.1685838 C45.7783162,18.2852141 54.7399556,18.0325359 55.3713511,15.6343016 C56.0023447,13.2356656 49.8173197,12.9829873 50.1960766,11.9730776 C50.5748336,10.9631679 58.5267222,13.6140804 58.9050778,10.7108913 C59.2842361,7.80730045 50.4487152,2.88389022 47.4190609,3.89379993 C44.3898083,4.90370964 42.3703066,11.7203993 39.9720479,10.9631679 C37.5737891,10.2055347 33.2821471,6.2924359 35.5542874,4.65103135 C37.8264277,3.01002851 42.3703066,5.2825262 43.253939,3.26230507 C43.6668364,2.31827651 43.8506765,2.6126044 43.1152534,1.66897755 C36.0128533,3.17407764 28.4608983,6.76098021 22.253034,11.6828428 C16.0623781,16.5910619 11.2118826,23.1067953 6.95407312,28.6507813 C6.74682116,33.5235755 6.73582082,39.0108591 8.03797368,38.6099483 C9.67871841,38.1049934 9.3003631,26.3644918 10.5623508,28.2581729 C11.8247403,30.1518541 10.310114,37.0950837 11.8247403,39.7459962 C13.3393666,42.3973105 14.601756,41.6396774 14.601756,41.6396774 C14.601756,41.6396774 17.37837,44.6694065 19.1456349,43.5333585 C18.6407595,44.5432682 21.922249,49.3405402 25.0780217,50.8554048 C28.2333927,52.3702693 33.0299102,51.4864979 35.1755304,54.3900887 C37.3215522,57.2936794 36.4379198,60.0711323 36.4379198,60.0711323 C36.4379198,60.0711323 32.9037917,63.6058159 33.5347856,68.0242715 C33.4082655,68.1504095 31.0104085,66.8882235 31.6414023,70.9274607 C32.2723962,74.9675013 43.8849329,80.9008211 44.5159268,84.4355052 C45.1469206,87.9701888 43.8849329,105.770551 44.5159268,108.926418 C45.1469206,112.082285 46.9141855,115.490831 49.3124442,114.733198 C51.710703,113.975967 50.8270705,110.820099 50.8270705,110.820099 L60.1674668,100.847141 C60.1674668,100.847141 65.2162212,99.7106909 69.2552248,95.5445119 C73.29463,91.378735 86.8001482,74.5886846 84.7806464,69.4129977 C82.7611447,64.2369092 75.4402503,64.6157259 75.4402503,64.6157259 L73.9714894,72.0044931 Z" id="Fill-24" fill="#CEDEE7"></path>
                    <path d="M68.5046149,57.1970311 C63.5819545,56.4368564 62.1934398,57.7039486 62.1934398,57.7039486 L52.9791152,49.5932687 C52.9791152,49.5932687 38.8425317,52.7614022 37.075258,52.3811132 C35.3079842,52.0012276 30.7640824,51.7475672 30.6379633,49.2129798 C30.5114426,46.6783923 32.9101151,44.0171763 29.7543265,41.9891031 C26.5989395,39.9614331 19.6567668,41.4821856 18.77313,40.2150935 C17.8894931,38.9475981 18.1421329,32.4842993 21.0452817,30.2033722 C23.9480288,27.9220419 29.8804455,27.0348355 31.6477193,28.6826198 C33.4145914,30.3300008 31.8999574,33.7517947 33.7933503,34.0050518 C35.6867432,34.2587122 33.9198711,27.2884959 36.1916211,25.6411148 C38.4637729,23.9933305 39.8522877,24.3736195 41.2404009,22.9794956 C42.6289158,21.5857749 41.6191598,19.6847335 43.7647908,18.7971238 C45.9108235,17.9103206 54.872508,17.6566603 55.5039067,15.2491047 C56.1349038,12.8411458 49.9498473,12.5874854 50.3286062,11.5736504 C50.7073651,10.5598154 58.6592936,13.2210314 59.0376508,10.3065583 C59.3746379,7.71268934 52.4192107,3.51741276 48.7472979,3.3379551 C48.3199389,3.38554163 47.8941866,3.43796746 47.4696393,3.49563587 C44.4861599,4.60424063 42.4811074,11.3131343 40.1045259,10.5598154 C38.5505299,10.0670126 36.1693597,8.62524743 35.3266915,6.95407312 C34.7513069,7.17266935 34.1805788,7.39970548 33.6146824,7.63508472 C22.524433,12.2479695 13.2899315,20.0651955 7.23223606,30.3586334 C7.21997946,34.6337585 7.41116635,38.5487585 8.17029078,38.3140521 C9.8110438,37.8071346 9.43268653,26.0210005 10.6946806,27.9220419 C11.9570764,29.8230833 10.4424425,36.7932996 11.9570764,39.4545156 C13.4717104,42.1161349 14.7341062,41.355557 14.7341062,41.355557 C14.7341062,41.355557 17.5107342,44.3970619 19.278008,43.2565985 C18.77313,44.2704334 22.054636,49.0863512 25.2104247,50.6071037 C28.3658116,52.1278561 33.1623533,51.2406497 35.3079842,54.1555261 C37.4540169,57.0704025 36.57038,59.8586503 36.57038,59.8586503 C36.57038,59.8586503 33.0362342,63.4070729 33.6672312,67.8427018 C33.5407105,67.9693304 31.1428413,66.7022382 31.7738384,70.757175 C32.4048354,74.8129178 44.0174306,80.7692995 44.6484277,84.3177216 C45.2794248,87.8661442 44.0174306,105.735692 44.6484277,108.903825 C44.9934478,110.634684 45.6778647,112.439746 46.6181346,113.59876 C47.900613,113.793139 49.1971494,113.942351 50.5065386,114.046799 C51.5267375,112.848264 50.9596033,110.804866 50.9596033,110.804866 L60.3000465,100.793145 C60.3000465,100.793145 65.3488265,99.6522784 69.3878501,95.4699063 C73.4272759,91.2879382 86.932862,74.432629 84.9133502,69.2368254 C82.8938384,64.040619 75.5729068,64.4209078 75.5729068,64.4209078 C75.5729068,64.4209078 73.4272759,57.9576087 68.5046149,57.1970311 Z" id="Fill-27" fill="#DEEDF2"></path>
                </g>
                <g id="Group" transform="translate(14.732627, 51.891550)">
                    <path d="M24.0018746,59.8450843 C24.9136953,60.6570547 25.8154839,61.4226826 26.7061254,62.1439262 L27.3398297,61.069567 C26.4636792,60.360725 25.575267,59.6068456 24.6762653,58.8059711 L24.0018746,59.8450843 Z M30.3397334,64.3795172 C31.2948303,65.0210226 32.2358178,65.612318 33.1626959,66.1557666 L33.6776885,65.1155352 C32.7698038,64.5839007 31.847267,64.0038287 30.9100782,63.3741374 L30.3397334,64.3795172 Z M37.2869556,68.7745927 C38.2970841,69.3579142 39.288556,69.8727293 40.2613711,70.3210728 L40.6249107,69.045905 C39.6792811,68.6097706 38.7133957,68.1091991 37.7277874,67.5394436 L37.2869556,68.7745927 Z M44.2007653,71.3173367 C45.2862574,71.6903281 46.3454832,71.9776226 47.3773707,72.1834348 L47.5387204,70.7947275 C46.5454282,70.5966422 45.5231895,70.3198839 44.4730764,69.9581314 L44.2007653,71.3173367 Z M52.0839077,72.5620017 C52.3404622,72.5724518 52.5948192,72.5776768 52.8475281,72.5776768 C53.7292625,72.5776768 54.5879234,72.5149777 55.4218629,72.3933126 L55.3048476,70.9086992 C54.5099133,71.0251393 53.6908067,71.084852 52.8475281,71.084852 C52.6058066,71.084852 52.3624369,71.0803736 52.1168697,71.0699241 L52.0839077,72.5620017 Z M60.2777592,71.2347779 C61.3518903,70.9266235 62.3748979,70.5334808 63.3435864,70.0657565 L62.9106324,69.0094745 C61.9935999,69.4517603 61.0254439,69.8246677 60.0056313,70.1166342 L60.2777592,71.2347779 Z M66.7601102,68.2506678 C67.7350463,67.5253301 68.6410301,66.719683 69.4758015,65.8483854 L68.7077214,64.9127127 C67.9175996,65.7374813 67.0602208,66.5004244 66.1378464,67.1862445 L66.7601102,68.2506678 Z M72.5223648,62.738154 C73.2342188,61.846086 73.8667908,60.9077335 74.4183934,59.9357704 L73.435517,59.4001989 C72.9120288,60.3225721 72.3115073,61.2129872 71.6367642,62.0587716 L72.5223648,62.738154 Z M76.0704125,55.4499187 C76.518894,54.0744319 76.8653899,52.6740653 77.1061004,51.2673011 L75.8620084,50.9993121 C75.6339671,52.329305 75.3058405,53.6571653 74.880797,54.9608571 L76.0704125,55.4499187 Z M77.8910055,47.6918079 C77.8930439,47.5924932 77.8937237,47.4931785 77.8937237,47.3944096 C77.8937237,46.3636106 77.7849954,45.3459081 77.5627822,44.3538528 L76.2247462,44.5470253 C76.4320093,45.4719613 76.5346213,46.4258187 76.5346213,47.3944096 C76.5346213,47.487176 76.5339421,47.5804881 76.5319031,47.6738003 L77.8910055,47.6918079 Z M76.2723282,40.3487805 C75.7943564,39.3145152 75.1844074,38.3352293 74.4371305,37.4348742 L73.4906989,38.0935378 C74.1749591,38.9187727 74.7361601,39.8174947 75.1772731,40.7728293 L76.2723282,40.3487805 Z M71.3066616,34.4192828 C70.4488449,33.7021623 69.4840741,33.0777629 68.4128943,32.5642764 L67.9687065,33.6364361 C68.962399,34.1123646 69.8496831,34.6874694 70.6365604,35.3459057 L71.3066616,34.4192828 Z M64.3208584,31.7322861 C63.2976739,31.4823338 62.2045426,31.3179234 61.0403795,31.2487619 L60.9829033,32.4603025 C62.0923016,32.5264306 63.1274148,32.6823474 64.0893267,32.9177394 L64.3208584,31.7322861 Z M56.8227503,30.98903 C55.7837445,31.0758413 54.6980543,31.2292893 53.5651364,31.4536537 L53.7535037,32.6580075 C54.8527652,32.4397566 55.902628,32.2918106 56.9030916,32.2086674 L56.8227503,30.98903 Z M49.4988173,32.6104257 C48.3745305,33.1326997 47.423081,33.8241379 46.6461577,34.6557252 L47.4793798,35.3920549 C48.1583432,34.6661269 48.9853723,34.0633767 49.9841128,33.5985856 L49.4988173,32.6104257 Z M43.6840461,38.329443 C43.1962067,39.3188624 42.8797521,40.3980349 42.7157895,41.5477275 L44.0565044,41.667398 C44.2089964,40.5962393 44.5025098,39.6078883 44.9410929,38.7183724 L43.6840461,38.329443 Z M42.8589175,46.4238968 C42.9327823,47.4782737 43.0908896,48.5717417 43.3277452,49.6945282 L44.5278951,49.4947286 C44.2995858,48.4104905 44.1475831,47.361 44.077381,46.3565731 L42.8589175,46.4238968 Z M44.4897914,53.0370765 C44.8089608,54.3717624 45.1814238,55.7284216 45.6036274,57.0978388 L46.7150948,56.6066348 C46.3017734,55.2684046 45.9387849,53.9457686 45.6284978,52.647232 L44.4897914,53.0370765 Z M46.6580348,60.6292406 C47.1670787,61.5950262 47.7187018,62.5645586 48.3097265,63.5324855 L49.4396641,63.0431685 C48.8600785,62.0929089 48.3186236,61.1415784 47.8197479,60.1945304 L46.6580348,60.6292406 Z M50.5918526,67.5574279 C51.1682159,68.4946083 51.77452,69.4252424 52.4090379,70.346058 L53.3734819,69.7498191 C52.749904,68.844278 52.1533882,67.9289178 51.5868134,67.0081029 L50.5918526,67.5574279 Z M55.0535617,74.6973867 C55.8071491,75.6064115 56.5882907,76.5008372 57.3937826,77.3756117 L58.3915169,76.6709633 C57.5994813,75.8107873 56.8317967,74.9315209 56.0903846,74.0376566 L55.0535617,74.6973867 Z M59.4193428,80.0221773 C60.2287263,80.9007716 61.0597575,81.7535763 61.9100309,82.5770754 L62.7572979,81.745371 C61.9238611,80.938283 61.1084649,80.1013035 60.3141145,79.2391203 L59.4193428,80.0221773 Z M65.3972321,85.8167422 C66.2645435,86.6567241 67.1489058,87.4565276 68.0474766,88.2105027 L68.7351872,87.2104341 C67.8587826,86.4752929 66.9948809,85.6943232 66.1463254,84.8725476 L65.3972321,85.8167422 Z M70.8043399,89.6121879 C71.7404433,90.2641139 72.6884854,90.861614 73.6473809,91.3969975 L74.142295,90.3439778 C73.216502,89.826933 72.2977638,89.2483636 71.3887942,88.6153683 L70.8043399,89.6121879 Z M78.8982947,94.2241442 C79.925112,94.668593 80.9599259,95.0310081 81.9990052,95.303432 L82.2362498,94.1096652 C81.2478184,93.8507094 80.259387,93.5042113 79.2741545,93.0781286 L78.8982947,94.2241442 Z M85.7066983,95.3562 C86.1086054,95.3916141 86.5110576,95.409698 86.9129646,95.409698 C87.6246183,95.409698 88.3357263,95.3531859 89.0446534,95.2371485 L88.9159558,93.7407204 C88.2506551,93.8499762 87.582628,93.9027203 86.9129646,93.9027203 C86.5345067,93.9027203 86.1555036,93.8861435 85.7759548,93.8522365 L85.7066983,95.3562 Z M93.3445693,94.4696592 C94.3601199,94.0637822 95.36605,93.531528 96.3570137,92.8668788 L95.8513764,91.6880299 C94.9170694,92.3159026 93.9720726,92.8147233 93.0190586,93.1958605 L93.3445693,94.4696592 Z M99.9270602,90.9387013 C100.820536,90.2105765 101.699554,89.3879057 102.561222,88.4651642 L101.739456,87.6007462 C100.913064,88.4860381 100.073371,89.2718728 99.2232674,89.9643895 L99.9270602,90.9387013 Z M105.324643,84.7448302 C106.085879,83.7970829 106.671775,82.8119879 107.110432,81.7933352 L105.969188,81.4068751 C105.565354,82.3437974 105.030167,83.2444555 104.328803,84.1169681 L105.324643,84.7448302 Z M108.30477,77.2216574 C108.491945,76.2086921 108.569935,75.168291 108.569935,74.1004524 C108.569935,74.0285679 108.569935,73.9561348 108.569226,73.8837023 L107.151233,73.8919332 C107.151942,73.9616224 107.151942,74.0313117 107.151942,74.1004524 C107.151942,75.1271357 107.076788,76.1154074 106.900957,77.0663652 L108.30477,77.2216574 Z M108.685679,70.2437574 C108.575761,69.1908418 108.430468,68.1112358 108.270646,67.0033051 L107.016702,67.137847 C107.175893,68.2403312 107.319922,69.3079539 107.427944,70.3412602 L108.685679,70.2437574 Z M106.795933,62.2131754 C106.646032,61.1703365 106.501149,60.1030176 106.375082,59.0095869 L105.126956,59.1178424 C105.254277,60.2237848 105.400414,61.2998074 105.550942,62.347542 L106.795933,62.2131754 Z M107.593034,55.0103952 C107.509471,53.942027 107.459639,52.8508686 107.457339,51.7358081 L105.924056,51.7369199 C105.926357,52.8753265 105.976955,53.9876077 106.062819,55.0737635 L107.593034,55.0103952 Z M106.544731,46.8306515 C106.62433,45.7876429 106.747287,44.7244504 106.922015,43.6399833 L105.640028,43.4926964 C105.460122,44.6038934 105.334577,45.6932702 105.253037,46.7602812 L106.544731,46.8306515 Z" id="Fill-160" fill="#34466B" transform="translate(66.343777, 63.199364) scale(-1, 1) rotate(-15.000000) translate(-66.343777, -63.199364) "></path>
                    <polygon id="Fill-4" fill="#EC0000" transform="translate(30.072033, 15.961027) rotate(3.000000) translate(-30.072033, -15.961027) " points="13.7967445 19.5771446 59.8354663 12.3449086 0.308600393 12.740029"></polygon>
                    <polygon id="Fill-5" fill="#990000" transform="translate(35.406555, 27.929238) rotate(3.000000) translate(-35.406555, -27.929238) " points="11.7627066 43.2281987 59.0504038 12.630277 11.7627066 36.8602574"></polygon>
                    <polyline id="Fill-6" fill="#990000" transform="translate(30.072033, 19.020819) rotate(3.000000) translate(-30.072033, -19.020819) " points="0.308600393 12.734565 11.4699105 21.5446628 11.4699105 25.696729 13.7967445 21.5446628 59.8354663 12.3449086 13.7967445 19.4771324 0.308600393 12.734565"></polyline>
                    <g id="Group-37" transform="translate(33.119183, 13.524453) rotate(-15.000000) translate(-33.119183, -13.524453) translate(15.754220, 4.175837)">
                        <g id="Group-21" transform="translate(-0.000000, 0.000000)">
                            <path d="M14.8630209,6.03831571 C14.8640598,5.8073103 14.766304,5.60829953 14.5705812,5.44148462 C14.3748584,5.27487094 14.0976372,5.0994034 13.7522192,4.91810036 C13.7471519,5.54088942 13.7446183,5.85238455 13.739551,6.47537476 C14.094259,6.55988894 14.3746472,6.56652936 14.5693144,6.49408861 C14.7639815,6.4214467 14.8619485,6.26932118 14.8630209,6.03831571 M12.4826601,2.82657557 C12.4788597,3.04611122 12.5576133,3.23083507 12.7193433,3.38175326 C12.8808621,3.53226899 13.1302133,3.69244349 13.4572626,3.85885594 C13.4633855,3.23948772 13.4663414,2.92980361 13.4724643,2.31043539 C13.1418258,2.24342771 12.8918411,2.25550117 12.7303223,2.34907044 C12.5692258,2.44263972 12.4862494,2.60180809 12.4826601,2.82657557 M15.2177122,3.30106233 C15.1674619,3.23646935 15.0939866,3.16201638 14.9966531,3.07770343 C14.8995307,2.99359169 14.7872065,2.90827261 14.6594693,2.82154496 C14.5317322,2.73501854 14.391327,2.65312027 14.2384647,2.57585017 C14.0856025,2.49858005 13.9297843,2.43519442 13.7729104,2.38549203 L13.7593978,4.01339616 C13.8216828,4.04156755 13.8529309,4.05565325 13.9152159,4.08382464 C14.2099614,4.22588896 14.4880271,4.37117286 14.7308332,4.51524942 C14.9738504,4.65912475 15.1790743,4.81165273 15.3465049,4.97303457 C15.5139356,5.13441642 15.6439952,5.31431089 15.7362615,5.51231555 C15.8281055,5.71032018 15.8741331,5.93569134 15.8737165,6.18802656 C15.8734997,6.46672211 15.8198712,6.6922945 15.7128254,6.86393877 C15.6059907,7.03518065 15.4573512,7.16436658 15.2681736,7.24968565 C15.078996,7.33500473 14.8585703,7.37947531 14.6071077,7.3828961 C14.3558562,7.3859145 14.0841245,7.35331614 13.800147,7.28671092 C13.7976133,7.61732235 13.7963465,7.78232626 13.7938129,8.1129377 C13.6192037,8.06846712 13.5317935,8.04633242 13.3573954,8.00166068 C13.3609847,7.66521372 13.3626738,7.49699024 13.3658408,7.16054334 C12.9657386,7.03196102 12.5709148,6.85649351 12.2045944,6.64138478 C11.8380628,6.42627605 11.5053129,6.17233105 11.2059224,5.879751 C11.3860212,5.62137908 11.4757539,5.49219312 11.6545858,5.23402242 C11.7149707,5.3118962 11.8034366,5.40184344 11.9201945,5.50426658 C12.0367415,5.60648852 12.1735574,5.71152757 12.3302201,5.81878007 C12.4866717,5.92603258 12.6591696,6.03046796 12.8477137,6.13067765 C13.0360468,6.23088735 13.2328253,6.31801743 13.4323486,6.38945201 C13.4386826,5.73889407 13.4420608,5.41351445 13.4483949,4.76255402 C13.4156689,4.74363894 13.3810426,4.72593121 13.3455718,4.70922959 C13.310101,4.69232676 13.2754747,4.6744178 13.2423264,4.65530149 C12.9469475,4.50720045 12.6899954,4.36493491 12.4714699,4.22890733 C12.2527333,4.09267851 12.0722123,3.94940685 11.9299068,3.79909234 C11.7880236,3.64877783 11.6809778,3.48759721 11.609614,3.31575171 C11.5382501,3.14350376 11.5057352,2.94831624 11.5108024,2.72918304 C11.5167142,2.47382947 11.5690759,2.25851953 11.6670429,2.08285076 C11.765221,1.90738323 11.900559,1.7685385 12.073268,1.66651781 C12.2457658,1.56489957 12.4459225,1.50151393 12.6739491,1.47676335 C12.9017645,1.45201276 13.1534383,1.46388499 13.4234808,1.51016657 C13.4266479,1.19283594 13.4281258,1.03407001 13.431504,0.716538155 C13.5991458,0.758191573 13.6827555,0.778917671 13.8501861,0.82036986 C13.8476525,1.13810294 13.8465968,1.2970701 13.8440632,1.6150044 C14.1941262,1.7228606 14.5332102,1.87498613 14.8380901,2.06514304 C15.142759,2.25529995 15.4117459,2.45974378 15.6446285,2.67847453 C15.4744532,2.92799259 15.3887321,3.05234917 15.2177122,3.30106233" id="Fill-5" fill="#FFFFFF"></path>
                            <path d="M21.8818309,6.01964213 C21.8930211,6.7225184 22.5040479,7.34772212 23.243234,7.3666372 C23.9824201,7.3857535 24.5674772,6.78912362 24.5539645,6.08765592 C24.540663,5.38618819 23.9342812,4.8442913 23.1972064,4.82376643 C22.4603428,4.80304034 21.8704296,5.31656461 21.8818309,6.01964213" id="Fill-7" fill="#FFFFFF"></path>
                            <path d="M5.27427571,2.76979009 C5.23774923,3.46139781 4.60898707,3.96667189 3.87571274,3.95077517 C3.14222726,3.93507968 2.58250648,3.40787216 2.61882183,2.71606322 C2.65534831,2.02465672 3.27735412,1.43144765 4.01105073,1.44754559 C4.74432506,1.4634423 5.31101332,2.07818236 5.27427571,2.76979009" id="Fill-9" fill="#FFFFFF"></path>
                            <path d="M-5.24998902e-16,17.406097 C11.2795033,11.7927455 22.97051,22.1712884 34.7299247,17.406097 L34.7299247,1.27052862 C22.9194152,5.67754079 11.8977086,-3.13225783 -5.24998902e-16,1.27052862 L-5.24998902e-16,17.406097 Z" id="Fill-11" fill="#63BA68"></path>
                            <path d="M3.40038673,6.35818917 C4.76422734,5.98979475 6.08200955,4.11882052 6.14853834,2.70767512 C9.14787886,2.49270459 11.9964634,3.09001715 14.9028342,3.76459513 C13.3451644,4.44205119 12.2421082,6.29420719 12.1156609,8.57785404 C12.0088309,10.5074968 12.940021,13.0280319 14.3458686,14.3459717 C11.4618874,13.6740504 8.62758946,13.0568127 5.64999872,13.2912656 C5.71631432,11.8801202 4.53500147,11.1687914 3.21999131,11.5491409 C3.29206418,9.47271591 3.32810062,8.43461415 3.40038673,6.35818917 M28.8714911,17.0150917 C25.7859024,17.0410631 23.006471,16.6168637 19.9977348,15.9234276 C21.4232664,15.2323722 22.3177216,13.4464063 22.3310873,11.3063638 C22.3442441,9.26609465 21.2432476,6.68215779 19.7323011,5.33337697 C22.7656802,6.058628 25.5691281,6.52265022 28.6866691,6.52892663 C28.711312,7.9270531 29.9996367,9.62796269 31.3410063,9.29487962 C31.3704525,11.341858 31.3854889,12.3655636 31.4151439,14.412542 C30.0906903,14.7493044 28.8468482,15.6169652 28.8714911,17.0150917 M1.46228091,16.0669107 C12.1815061,12.3515807 22.2628006,20.9321608 33.1728544,17.7329957 C33.1307069,13.0018515 33.0885594,8.27070737 33.0464119,3.5395632 C22.2835567,6.43506305 12.5208038,-1.0548325 1.74778239,1.93579672 C1.62084578,8.21624285 1.52567862,12.9266142 1.46228091,16.0669107 Z" id="Fill-13" fill="#3A8340"></path>
                        </g>
                    </g>
                    <polyline id="Fill-26" fill="#EC0000" transform="translate(30.350196, 27.365707) rotate(3.000000) translate(-30.350196, -27.365707) " points="59.2791405 12.3449086 1.42125209 42.3865045 13.009134 21.6273884 59.2791405 12.3449086"></polyline>
                </g>
                <path d="M153.558223,37.0751129 C154.471754,29.6548709 160.795895,23.9100401 168.460833,23.9100401 C176.753375,23.9100401 183.476179,30.6344871 183.476179,38.929872 C183.476179,40.2908033 183.29535,41.6094556 182.955977,42.8630267 C183.08347,42.8647076 183.209867,42.8692388 183.335534,42.8765838 L183.476909,42.8649269 L183.476909,42.8859751 C187.777706,43.2091885 191.167785,46.802759 191.167785,51.1880105 C191.167785,55.5732621 187.777706,59.1668326 183.476909,59.490046 L183.476909,59.5148945 L128.80769,59.5148945 L128.80769,59.5140541 L128.807507,59.5140541 C125.456517,59.5140541 122.739705,56.7960649 122.739705,53.4437077 C122.739705,50.0913505 125.456517,47.3737267 128.807507,47.3737267 L128.80769,47.3737267 L128.80769,47.3734709 L142.65839,46.2312066 C142.595118,45.8174057 142.562313,45.3935923 142.562313,44.9621417 C142.562313,40.3640699 146.288477,36.636427 150.885176,36.636427 C151.820223,36.636427 152.719252,36.7906705 153.558223,37.0751129 Z" id="Primary-color-Copy-2" fill="#DEEDF2" transform="translate(156.953745, 41.712467) scale(-1, 1) translate(-156.953745, -41.712467) "></path>
                <path d="M121.367829,56.3875003 C122.036266,50.9382601 126.663686,46.7194 132.272178,46.7194 C138.339891,46.7194 143.259016,51.6576658 143.259016,57.749589 C143.259016,58.7490229 143.126702,59.7174082 142.87838,60.6379996 C142.971668,60.6392341 143.064154,60.6425614 143.156105,60.6479556 L143.25955,60.6393948 L143.25955,60.6548523 C146.406475,60.8922121 148.88702,63.5312406 148.88702,66.7516596 C148.88702,69.9720786 146.406475,72.6111071 143.25955,72.8484669 L143.25955,72.8667149 L103.257683,72.8667149 L103.257683,72.8660979 L103.257549,72.8660979 C100.805605,72.8660979 98.8176936,70.8700742 98.8176936,68.4081871 C98.8176936,65.9462995 100.805605,63.950545 103.257549,63.950545 L103.257683,63.950545 L103.257683,63.950357 L113.392341,63.1115066 C113.346045,62.8076214 113.322041,62.4963838 113.322041,62.1795368 C113.322041,58.8028281 116.048503,56.0653403 119.41194,56.0653403 C120.096121,56.0653403 120.753947,56.1786129 121.367829,56.3875003 Z" id="Primary-color-Copy-2" fill="#EFF6F9" transform="translate(123.852357, 59.793057) scale(-1, 1) translate(-123.852357, -59.793057) "></path>
                <g id="Group" transform="translate(219.884119, 114.521094) scale(-1, 1) translate(-219.884119, -114.521094) translate(203.727377, 92.676769)">
                    <path d="M7.41611937,31.8429052 C7.71755424,32.2065149 8.03001092,32.5642853 8.35220782,32.9141951 L8.75130141,32.6323358 C8.43448724,32.2882654 8.12741334,31.9365588 7.83084861,31.5790131 L7.41611937,31.8429052 Z M9.46010961,33.8275043 C9.78386299,34.178942 10.1162754,34.5200641 10.4563848,34.8494636 L10.7952916,34.5167818 C10.4619171,34.1939467 10.1357583,33.8591548 9.81801823,33.5142816 L9.46010961,33.8275043 Z M11.9074618,36.0153189 C12.2543863,36.3513117 12.6081311,36.671233 12.9675595,36.9728229 L13.2426438,36.5727957 C12.8920818,36.2787392 12.5465213,35.9663513 12.2070991,35.6376409 L11.9074618,36.0153189 Z M13.9378618,37.6170147 C14.3123032,37.825631 14.6915201,38.016831 15.0750783,38.1881538 L15.2730438,37.8511874 C14.9027267,37.6857332 14.5352314,37.5005909 14.1716435,37.2980325 L13.9378618,37.6170147 Z M17.1647574,39.261165 C17.5754843,39.4389444 17.9894099,39.5839105 18.4050416,39.69288 L18.4999395,39.2153733 C18.104567,39.1117911 17.7091944,38.9731918 17.3151014,38.8027586 L17.1647574,39.261165 Z M19.7594298,39.6838589 C19.9201926,39.6933026 20.0811735,39.698125 20.2419363,39.698125 C20.5265978,39.698125 20.8110411,39.6830552 21.0946118,39.6521119 L21.0431328,39.2530643 C20.7770125,39.2821992 20.5098016,39.2962643 20.2419363,39.2962643 C20.0905532,39.2962643 19.9389519,39.2918438 19.7871324,39.282802 L19.7594298,39.6838589 Z M22.860488,39.3417067 C23.2667082,39.211826 23.6690802,39.0415047 24.0654657,38.828817 L23.8632107,38.4515853 C23.489488,38.6525046 23.1114893,38.8121273 22.7302836,38.934091 L22.860488,39.3417067 Z M25.3640214,38.2057449 C25.7214116,37.914495 26.0730188,37.5854268 26.4176864,37.2163301 L26.0889799,36.8705629 C25.7584229,37.2246796 25.4225455,37.5390135 25.0825044,37.8160201 L25.3640214,38.2057449 Z M27.6530171,35.9600737 C27.8966129,35.5809747 28.0840994,35.1869369 28.22447,34.7794758 L27.8592719,34.6248917 C27.730045,34.9996607 27.5587851,35.3599238 27.3343486,35.7089288 L27.6530171,35.9600737 Z M28.5351859,32.5586775 C28.5850993,32.1534916 28.6058965,31.7373309 28.6058965,31.3101956 C28.6058965,31.2814419 28.6058965,31.2524687 28.6057075,31.2234955 L28.227576,31.2267879 C28.2277651,31.2546636 28.2277651,31.2825393 28.2277651,31.3101956 C28.2277651,31.7208689 28.2077241,32.1161776 28.1608358,32.4965607 L28.5351859,32.5586775 Z M28.7396264,30.1266853 C28.7103151,29.705519 28.6715702,29.2736765 28.6289509,28.8305041 L28.2945658,28.884321 C28.3370166,29.3253146 28.3754246,29.7523636 28.4042306,30.1656862 L28.7396264,30.1266853 Z M27.8513613,26.7513138 C27.8113877,26.3341782 27.7727522,25.9072507 27.7391344,25.4698785 L27.4063006,25.5131805 C27.440253,25.9555575 27.479223,26.3859666 27.5193637,26.8050606 L27.8513613,26.7513138 Z M28.173182,23.9833599 C28.1508983,23.5560127 28.1376098,23.1195494 28.1369965,22.6735252 L27.7281213,22.6739699 C27.7287346,23.1293326 27.7422275,23.574245 27.7651245,24.0087073 L28.173182,23.9833599 Z M27.9910318,21.0242632 C28.012258,20.6070597 28.0450465,20.1817827 28.0916407,19.7479959 L27.7497775,19.6890812 C27.7018028,20.13356 27.668324,20.5693106 27.6465801,20.996115 L27.9910318,21.0242632 Z" id="Fill-160" fill="#34466B" transform="translate(18.077873, 29.693603) scale(-1, 1) rotate(-30.000000) translate(-18.077873, -29.693603) "></path>
                    <polygon id="Fill-4" fill="#EC0000" transform="translate(13.813707, 7.347877) rotate(3.000000) translate(-13.813707, -7.347877) " points="6.33842959 9.0122405 27.485049 5.68351406 0.142365301 5.86119314"></polygon>
                    <polygon id="Fill-5" fill="#990000" transform="translate(16.264057, 12.861534) rotate(3.000000) translate(-16.264057, -12.861534) " points="5.40498876 19.9084776 27.1235918 5.81459048 5.40452189 16.9745815"></polygon>
                    <polyline id="Fill-6" fill="#990000" transform="translate(13.813487, 8.757528) rotate(3.000000) translate(-13.813487, -8.757528) " points="0.142145328 5.85867582 5.26956033 9.91856295 5.26986475 11.8315408 6.33835425 9.91873358 27.4848294 5.68351417 6.33820266 8.96616208 0.142145328 5.85867582"></polyline>
                    <g id="Group-37" transform="translate(15.304175, 6.224857) rotate(-15.000000) translate(-15.304175, -6.224857) translate(7.327924, 1.917641)">
                        <g id="Group-21" transform="translate(0.000000, -0.000000)">
                            <path d="M6.82702973,2.78205123 C6.82751073,2.6756194 6.78260856,2.58392857 6.69270713,2.50707145 C6.60280577,2.43030703 6.47546973,2.34946335 6.31680883,2.26593106 C6.31448127,2.5528705 6.31331749,2.69638659 6.31098994,2.98341875 C6.47391803,3.02235722 6.6027088,3.02541667 6.69212527,2.99204083 C6.78154175,2.95857229 6.82654094,2.88848305 6.82702973,2.78205123 M5.73366206,1.3022966 C5.73191642,1.40344391 5.76809034,1.48855229 5.84237776,1.55808527 C5.91656821,1.62743283 6.03110279,1.70123051 6.18132635,1.77790222 C6.1841388,1.49253884 6.18549651,1.34985716 6.18830896,1.06449379 C6.03643673,1.03362114 5.92161124,1.03918378 5.8474208,1.08229424 C5.77342429,1.12540468 5.73531074,1.19873881 5.73366206,1.3022966 M6.98995393,1.5209083 C6.96687241,1.49114818 6.93312307,1.45684524 6.88841478,1.41799948 C6.84380357,1.37924643 6.79220963,1.33993712 6.73353617,1.29997883 C6.67486265,1.26011325 6.6103703,1.22238002 6.54015602,1.18677913 C6.4699418,1.15117825 6.39836981,1.12197439 6.32631293,1.09907486 L6.32010617,1.84910399 C6.34871556,1.86208348 6.36306871,1.86857323 6.39167816,1.88155271 C6.52706362,1.94700643 6.65478757,2.01394352 6.76631572,2.08032434 C6.87794083,2.14661245 6.97220641,2.21688712 7.04911234,2.29124106 C7.12601827,2.365595 7.18575854,2.44847832 7.22813922,2.53970559 C7.27032597,2.63093287 7.29146785,2.73476879 7.2912765,2.85102794 C7.29117689,2.97943219 7.26654373,3.08336082 7.21737437,3.162443 C7.16830198,3.24133977 7.10002734,3.30086 7.01313235,3.34016931 C6.92623737,3.37947863 6.82498924,3.39996768 6.70948486,3.40154376 C6.59407746,3.40293442 6.46926292,3.38791529 6.33882348,3.35722807 C6.3376597,3.50955166 6.33707784,3.58557439 6.33591406,3.73789798 C6.25571079,3.71740893 6.21556064,3.70721076 6.13545433,3.686629 C6.13710301,3.5316168 6.13787886,3.4541107 6.13933359,3.2990985 C5.95555458,3.2398564 5.77420014,3.15901271 5.6059381,3.05990503 C5.43757908,2.96079735 5.28473703,2.84379651 5.14721797,2.70899523 C5.22994276,2.58995476 5.27115968,2.53043453 5.35330259,2.41148677 C5.38103916,2.44736579 5.42167419,2.48880745 5.47530468,2.53599717 C5.52883818,2.58309418 5.59168187,2.63148913 5.66364178,2.68090391 C5.73550473,2.73031868 5.81473816,2.77843551 5.90134224,2.82460541 C5.98784924,2.87077531 6.07823555,2.91091902 6.16988261,2.9438313 C6.17279203,2.64409778 6.17434374,2.49418466 6.17725315,2.19426573 C6.16222112,2.18555093 6.14631621,2.17739239 6.13002343,2.1696974 C6.11373059,2.16190971 6.09782573,2.15365846 6.08259971,2.14485095 C5.94692329,2.07661592 5.82889743,2.01106949 5.72852206,1.94839709 C5.62804978,1.88563198 5.54513102,1.819622 5.47976581,1.75036715 C5.41459458,1.6811123 5.36542522,1.60685107 5.33264564,1.52767618 C5.29986606,1.44831587 5.28493099,1.35838654 5.28725853,1.25742465 C5.289974,1.13977484 5.31402529,1.04057444 5.35902447,0.95963805 C5.40412063,0.878794368 5.46628545,0.814824022 5.54561592,0.767819723 C5.6248494,0.721000847 5.71678737,0.691796994 5.82152683,0.680393583 C5.92616933,0.668990171 6.04177067,0.674460101 6.16580936,0.695783553 C6.1672641,0.549578861 6.16794298,0.476430162 6.16949469,0.330132762 C6.24649759,0.349323866 6.28490204,0.358873063 6.36180797,0.377971456 C6.36064419,0.524361566 6.3601593,0.597602978 6.35899552,0.7440858 C6.51979004,0.793778705 6.67554153,0.863867951 6.8155821,0.951479515 C6.95552565,1.03909107 7.07907944,1.13328509 7.1860495,1.23406156 C7.10788282,1.34902276 7.06850853,1.40631794 6.98995393,1.5209083" id="Fill-5" fill="#FFFFFF"></path>
                            <path d="M10.0509845,2.77344767 C10.0561245,3.09728596 10.3367875,3.38533794 10.676318,3.39405274 C11.0158485,3.40286025 11.2845828,3.12797319 11.2783761,2.80478387 C11.2722663,2.48159456 10.9937368,2.23192479 10.6551762,2.2224683 C10.3167125,2.21291911 10.0457476,2.44951668 10.0509845,2.77344767" id="Fill-7" fill="#FFFFFF"></path>
                            <path d="M2.42263382,1.27613366 C2.40585611,1.59478015 2.11704669,1.82757658 1.78023169,1.82025244 C1.4433197,1.81302101 1.18622307,1.57011911 1.2029038,1.25137991 C1.21968152,0.932826131 1.50538754,0.659515147 1.84239651,0.666931999 C2.17921151,0.674256141 2.43950851,0.957487161 2.42263382,1.27613366" id="Fill-9" fill="#FFFFFF"></path>
                            <path d="M-1.08088009e-16,8.01956306 C5.18101585,5.43330685 10.5510477,10.2150438 15.9525013,8.01956306 L15.9525013,0.585374441 C10.5275783,2.61583031 5.46497621,-1.4431345 -1.08088009e-16,0.585374441 L-1.08088009e-16,8.01956306 Z" id="Fill-11" fill="#63BA68"></path>
                            <path d="M1.56190013,2.92942747 C2.18835323,2.75969602 2.79365031,1.89767647 2.824209,1.24751524 C4.20189651,1.14847123 5.51033723,1.42367282 6.84532094,1.73447315 C6.12983628,2.0465995 5.62316935,2.89994887 5.56508821,3.95210028 C5.51601805,4.84115037 5.94374172,6.00244402 6.58948988,6.6096624 C5.26479036,6.30008609 3.9629119,6.01570427 2.59521473,6.12372451 C2.62567548,5.47356325 2.08306288,5.14583058 1.47903907,5.32107014 C1.51214431,4.36439267 1.52869694,3.88610494 1.56190013,2.92942747 M13.2615462,7.83941395 C11.8442423,7.85137986 10.5675656,7.65593719 9.18556243,7.33644832 C9.840352,7.01805631 10.2512023,6.19520292 10.2573415,5.20921472 C10.2633849,4.26919545 9.75766396,3.07869051 9.06364067,2.45726269 C10.4569632,2.79140977 11.7446713,3.00520009 13.1766518,3.00809184 C13.1879711,3.65225483 13.7797374,4.43591999 14.3958689,4.28245763 C14.4093945,5.22556808 14.4163011,5.69722302 14.4299226,6.64033347 C13.8215611,6.79549103 13.2502269,7.19525098 13.2615462,7.83941395 M0.671669702,7.40255569 C5.59533292,5.69078066 10.2259754,9.6441369 15.2372919,8.17017604 C15.2179324,5.99038188 15.1985727,3.81058769 15.1792131,1.63079352 C10.2355093,2.96484581 5.75118266,-0.485996125 0.80280914,0.8918854 C0.744503326,3.7854941 0.700790178,5.95571755 0.671669702,7.40255569 Z" id="Fill-13" fill="#3A8340"></path>
                        </g>
                    </g>
                    <polygon id="Fill-26" fill="#EC0000" transform="translate(13.941752, 12.601909) rotate(3.000000) translate(-13.941752, -12.601909) " points="0.654805964 19.5203071 5.97599191 9.95682703 27.2286978 5.68351049"></polygon>
                </g>
            </g>
        </g>
    </g>
</svg>